<?xml version="1.0" encoding="iso-8859-1"?>
<!-- Generator: Adobe Illustrator 18.0.0, SVG Export Plug-In . SVG Version: 6.00 Build 0)  -->
<!DOCTYPE svg PUBLIC "-//W3C//DTD SVG 1.1//EN" "http://www.w3.org/Graphics/SVG/1.1/DTD/svg11.dtd">
<svg version="1.1" id="Capa_1" xmlns="http://www.w3.org/2000/svg" xmlns:xlink="http://www.w3.org/1999/xlink" x="0px" y="0px"
	 viewBox="0 0 212.715 212.715" style="enable-background:new 0 0 212.715 212.715;" xml:space="preserve">
<g>
	<path stroke="#c0aa11" fill="#c0aa11" d="M211.436,187.771L112.843,17.002c-1.34-2.32-3.815-3.75-6.495-3.75c-2.68,0-5.155,1.43-6.495,3.75L1.005,188.213
		c-1.34,2.32-1.34,5.18,0,7.5c1.34,2.32,3.816,3.75,6.495,3.75h197.695c0.007,0,0.015,0,0.02,0c4.143,0,7.5-3.357,7.5-7.5
		C212.715,190.41,212.243,188.968,211.436,187.771z M20.49,184.463l85.857-148.711l85.857,148.711H20.49z"/>
	<path stroke="#c0aa11" fill="#c0aa11" d="M98.848,76.58v63.879c0,4.143,3.357,7.5,7.5,7.5s7.5-3.357,7.5-7.5V76.58c0-4.143-3.357-7.5-7.5-7.5
		S98.848,72.438,98.848,76.58z"/>
	<circle stroke="#c0aa11" fill="#c0aa11" cx="106.348" cy="164.007" r="9.328"/>
</g>
<g>
</g>
<g>
</g>
<g>
</g>
<g>
</g>
<g>
</g>
<g>
</g>
<g>
</g>
<g>
</g>
<g>
</g>
<g>
</g>
<g>
</g>
<g>
</g>
<g>
</g>
<g>
</g>
<g>
</g>
</svg>
